<svg xmlns="http://www.w3.org/2000/svg" width="56" height="60" fill="none"><g clip-path="url(#a)"><path fill="#F97316" fill-rule="evenodd" d="M0 22.276v23.761h7.7c.81 0 1.61.154 2.358.452a6.177 6.177 0 0 1 1.998 1.288 5.931 5.931 0 0 1 1.336 1.927c.31.72.469 1.493.469 2.273v7.426h18.48l23.102-22.276V13.366h-7.7c-.81 0-1.61-.154-2.358-.453a6.181 6.181 0 0 1-1.999-1.287 5.933 5.933 0 0 1-1.335-1.927 5.76 5.76 0 0 1-.47-2.274V0h-18.48L0 22.276Zm26.181 22.276h-10.78V28.216l13.86-13.365h10.78v16.335l-13.86 13.366Z" clip-rule="evenodd"/></g><defs><clipPath id="a"><path fill="#fff" d="M0 0h55.69v59.403H0z"/></clipPath></defs></svg>